<svg width="113" height="68" viewBox="0 0 113 68" fill="none" xmlns="http://www.w3.org/2000/svg">
<path d="M46.3773 45.72C45.1773 45.72 44.1873 45.642 43.4073 45.486C42.6393 45.342 42.0393 45.078 41.6073 44.694C41.1753 44.31 40.8693 43.776 40.6893 43.092C40.5213 42.408 40.4373 41.532 40.4373 40.464C40.4373 39.864 40.4493 39.138 40.4733 38.286C40.5093 37.422 40.5513 36.498 40.5993 35.514C40.6593 34.53 40.7193 33.558 40.7793 32.598C40.8513 31.626 40.9233 30.732 40.9953 29.916C41.0673 29.1 41.1393 28.44 41.2113 27.936C41.3793 26.784 41.7633 25.866 42.3633 25.182C42.9753 24.498 43.8093 24.012 44.8653 23.724C45.9333 23.424 47.2293 23.274 48.7533 23.274C49.7733 23.274 50.7513 23.388 51.6873 23.616C52.6353 23.844 53.4813 24.192 54.2253 24.66C54.9693 25.116 55.5573 25.698 55.9893 26.406C56.4213 27.114 56.6373 27.954 56.6373 28.926C56.6373 29.778 56.4393 30.522 56.0433 31.158C55.6473 31.782 55.1733 32.292 54.6213 32.688C54.0693 33.084 53.5533 33.366 53.0733 33.534C52.6293 33.69 52.2453 33.804 51.9213 33.876C51.6093 33.936 51.4533 33.996 51.4533 34.056C51.4533 34.128 51.7293 34.2 52.2813 34.272C52.8333 34.332 53.5053 34.476 54.2973 34.704C55.1973 34.956 55.9713 35.274 56.6193 35.658C57.2793 36.03 57.7833 36.504 58.1313 37.08C58.4793 37.656 58.6533 38.364 58.6533 39.204C58.6533 40.092 58.3773 40.932 57.8253 41.724C57.2853 42.504 56.6913 43.128 56.0433 43.596C55.5753 43.932 54.9933 44.232 54.2973 44.496C53.6013 44.76 52.8213 44.982 51.9573 45.162C51.1053 45.354 50.2053 45.492 49.2573 45.576C48.3093 45.672 47.3493 45.72 46.3773 45.72ZM45.9813 44.586C47.7813 44.586 49.3953 44.472 50.8233 44.244C52.2633 44.004 53.4813 43.65 54.4773 43.182C55.4853 42.714 56.2533 42.132 56.7813 41.436C57.3213 40.74 57.5913 39.93 57.5913 39.006C57.5913 38.154 57.2493 37.452 56.5653 36.9C55.8933 36.348 54.9993 35.916 53.8833 35.604C52.7793 35.292 51.5673 35.064 50.2473 34.92C48.9273 34.776 47.6133 34.686 46.3053 34.65C45.0093 34.614 43.8453 34.596 42.8133 34.596C42.5733 34.596 42.3753 34.668 42.2193 34.812C42.0753 34.956 41.9613 35.202 41.8773 35.55C41.8053 35.886 41.7573 36.354 41.7333 36.954C41.7093 37.554 41.6973 38.304 41.6973 39.204C41.6973 40.332 41.7333 41.25 41.8053 41.958C41.8893 42.654 42.0693 43.194 42.3453 43.578C42.6213 43.962 43.0473 44.226 43.6233 44.37C44.1993 44.514 44.9853 44.586 45.9813 44.586ZM42.5433 33.66C43.9233 33.66 45.1473 33.648 46.2153 33.624C47.2833 33.6 48.2433 33.546 49.0953 33.462C49.9593 33.378 50.7633 33.246 51.5073 33.066C52.7433 32.754 53.7153 32.274 54.4233 31.626C55.1433 30.966 55.5033 29.952 55.5033 28.584C55.5033 27.852 55.2933 27.216 54.8733 26.676C54.4653 26.136 53.9133 25.686 53.2173 25.326C52.5333 24.966 51.7653 24.702 50.9133 24.534C50.0733 24.354 49.2213 24.264 48.3573 24.264C47.5053 24.264 46.6953 24.354 45.9273 24.534C45.1593 24.714 44.4933 24.978 43.9293 25.326C43.3773 25.674 42.9813 26.094 42.7413 26.586C42.6213 26.85 42.5073 27.228 42.3993 27.72C42.3033 28.2 42.2193 28.728 42.1473 29.304C42.0753 29.88 42.0213 30.45 41.9853 31.014C41.9493 31.566 41.9313 32.058 41.9313 32.49C41.9313 32.85 41.9733 33.138 42.0573 33.354C42.1413 33.558 42.3033 33.66 42.5433 33.66ZM64.3905 46.206C64.2105 46.206 64.0845 46.092 64.0125 45.864C63.9405 45.636 63.9045 45.306 63.9045 44.874C63.9045 44.286 63.9225 43.554 63.9585 42.678C63.9945 41.79 64.0425 40.818 64.1025 39.762C64.1745 38.694 64.2465 37.59 64.3185 36.45C64.3905 35.31 64.4625 34.182 64.5345 33.066C64.6185 31.95 64.6905 30.894 64.7505 29.898C64.8225 28.89 64.8765 28.002 64.9125 27.234C64.9485 26.466 64.9665 25.86 64.9665 25.416C64.9665 24.924 64.9425 24.588 64.8945 24.408C64.8465 24.216 64.7025 24.12 64.4625 24.12C64.1745 24.12 63.8145 24.228 63.3825 24.444C62.9625 24.66 62.5545 24.882 62.1585 25.11C61.7625 25.326 61.4505 25.434 61.2225 25.434C61.1145 25.434 61.0485 25.41 61.0245 25.362C61.0005 25.302 60.9885 25.248 60.9885 25.2C60.9885 25.02 61.1445 24.792 61.4565 24.516C61.7805 24.228 62.1765 23.946 62.6445 23.67C63.1125 23.382 63.5685 23.142 64.0125 22.95C64.4565 22.746 64.8045 22.644 65.0565 22.644C65.2365 22.644 65.3925 22.68 65.5245 22.752C65.6565 22.812 65.7585 22.914 65.8305 23.058C65.9145 23.202 65.9745 23.382 66.0105 23.598C66.0585 23.814 66.0825 24.066 66.0825 24.354C66.0825 24.834 66.0645 25.446 66.0285 26.19C66.0045 26.934 65.9625 27.768 65.9025 28.692C65.8545 29.604 65.7945 30.576 65.7225 31.608C65.6505 32.628 65.5785 33.678 65.5065 34.758C65.4345 35.826 65.3685 36.882 65.3085 37.926C65.2485 38.97 65.1885 39.972 65.1285 40.932C65.0805 41.88 65.0445 42.744 65.0205 43.524C64.9965 44.436 64.9365 45.108 64.8405 45.54C64.7445 45.984 64.5945 46.206 64.3905 46.206ZM73.1467 45.468C73.0747 45.468 73.0087 45.456 72.9487 45.432C72.8887 45.408 72.8407 45.372 72.8047 45.324C72.7807 45.288 72.7687 45.234 72.7687 45.162C72.7687 45.03 72.8347 44.898 72.9667 44.766C73.1107 44.634 73.3687 44.472 73.7407 44.28C74.3047 44.004 74.9587 43.626 75.7027 43.146C76.4587 42.654 77.2267 42.108 78.0067 41.508C78.7867 40.896 79.5067 40.254 80.1667 39.582C80.8387 38.898 81.3787 38.22 81.7867 37.548C82.2067 36.864 82.4167 36.222 82.4167 35.622C82.4167 35.37 82.3987 35.208 82.3627 35.136C82.3267 35.052 82.2607 35.01 82.1647 35.01C82.0687 35.01 81.8587 35.13 81.5347 35.37C81.1387 35.67 80.5327 36.036 79.7167 36.468C78.9127 36.888 77.7667 37.098 76.2787 37.098C74.8387 37.098 73.5847 36.864 72.5167 36.396C71.4487 35.928 70.6207 35.226 70.0327 34.29C69.4447 33.342 69.1507 32.16 69.1507 30.744C69.1507 29.616 69.3307 28.608 69.6907 27.72C70.0627 26.832 70.5847 26.076 71.2567 25.452C71.9287 24.828 72.7207 24.354 73.6327 24.03C74.5567 23.706 75.5647 23.544 76.6567 23.544C78.1567 23.544 79.4947 23.772 80.6707 24.228C81.8467 24.684 82.7767 25.44 83.4607 26.496C84.1447 27.552 84.4867 28.98 84.4867 30.78C84.4867 33.06 84.1327 35.022 83.4247 36.666C82.7287 38.298 81.6667 39.75 80.2387 41.022C78.8107 42.294 77.0047 43.536 74.8207 44.748C74.4247 44.964 74.0827 45.138 73.7947 45.27C73.5067 45.402 73.2907 45.468 73.1467 45.468ZM75.9907 36.054C76.8547 36.054 77.7127 35.934 78.5647 35.694C79.4167 35.442 80.1967 35.07 80.9047 34.578C81.6127 34.074 82.1767 33.444 82.5967 32.688C83.0287 31.932 83.2447 31.038 83.2447 30.006C83.2447 28.854 82.9447 27.882 82.3447 27.09C81.7567 26.286 80.9767 25.674 80.0047 25.254C79.0327 24.834 77.9767 24.624 76.8367 24.624C75.4927 24.624 74.3287 24.864 73.3447 25.344C72.3727 25.824 71.6227 26.532 71.0947 27.468C70.5667 28.392 70.3027 29.538 70.3027 30.906C70.3027 31.938 70.5607 32.844 71.0767 33.624C71.5927 34.392 72.2827 34.992 73.1467 35.424C74.0107 35.844 74.9587 36.054 75.9907 36.054ZM90.6177 45.846C89.9937 45.846 89.4297 45.792 88.9257 45.684C88.4337 45.588 88.0377 45.426 87.7377 45.198C87.4497 44.97 87.3057 44.664 87.3057 44.28C87.3057 43.86 87.3657 43.494 87.4857 43.182C87.6177 42.858 87.8457 42.456 88.1697 41.976C88.5177 41.448 89.1117 40.758 89.9517 39.906C90.8037 39.042 91.7637 38.094 92.8317 37.062C93.8997 36.018 94.9257 34.974 95.9097 33.93C96.5457 33.258 97.1097 32.58 97.6017 31.896C98.1057 31.212 98.5017 30.546 98.7897 29.898C99.0897 29.238 99.2397 28.632 99.2397 28.08C99.2397 26.46 98.8317 25.344 98.0157 24.732C97.1997 24.12 96.0597 23.814 94.5957 23.814C93.3837 23.814 92.3817 23.988 91.5897 24.336C90.8097 24.684 90.1677 25.098 89.6637 25.578C89.3157 25.914 89.0157 26.316 88.7637 26.784C88.5117 27.252 88.2897 27.666 88.0977 28.026C87.9057 28.386 87.7077 28.566 87.5037 28.566C87.3957 28.566 87.3117 28.542 87.2517 28.494C87.1917 28.446 87.1617 28.362 87.1617 28.242C87.1617 27.87 87.2997 27.384 87.5757 26.784C87.8637 26.172 88.3017 25.56 88.8897 24.948C89.4777 24.324 90.2337 23.802 91.1577 23.382C92.0817 22.962 93.1917 22.752 94.4877 22.752C95.4477 22.752 96.2937 22.86 97.0257 23.076C97.7697 23.28 98.3877 23.598 98.8797 24.03C99.3837 24.462 99.7617 25.008 100.014 25.668C100.278 26.316 100.41 27.084 100.41 27.972C100.41 28.764 100.248 29.526 99.9237 30.258C99.6117 30.99 99.1677 31.728 98.5917 32.472C98.0157 33.204 97.3317 33.978 96.5397 34.794C96.0717 35.274 95.5257 35.832 94.9017 36.468C94.2897 37.104 93.6537 37.764 92.9937 38.448C92.3337 39.12 91.7157 39.756 91.1397 40.356C90.5637 40.956 90.0837 41.466 89.6997 41.886C89.3877 42.234 89.1477 42.57 88.9797 42.894C88.8117 43.206 88.7277 43.53 88.7277 43.866C88.7277 44.082 88.8837 44.238 89.1957 44.334C89.5197 44.43 89.9037 44.49 90.3477 44.514C90.7917 44.538 91.1997 44.55 91.5717 44.55C92.2077 44.55 92.9997 44.502 93.9477 44.406C94.9077 44.298 95.8557 44.196 96.7917 44.1C97.7397 43.992 98.4957 43.938 99.0597 43.938C99.2277 43.938 99.3657 43.962 99.4737 44.01C99.5937 44.058 99.6537 44.142 99.6537 44.262C99.6537 44.406 99.5757 44.544 99.4197 44.676C99.2637 44.796 98.9997 44.91 98.6277 45.018C98.2677 45.126 97.7637 45.228 97.1157 45.324C96.4677 45.42 95.6457 45.522 94.6497 45.63C94.1337 45.678 93.5037 45.726 92.7597 45.774C92.0277 45.822 91.3137 45.846 90.6177 45.846Z" fill="white"/>
<path d="M56.5 1C25.8483 1 1 15.0715 1 32.4294C1 49.7874 25.8481 63.8589 56.5 63.8589C61.8875 63.8439 67.2425 63.3847 72.3963 62.4957L84.6778 67L84.4433 59.5744C101.5 53.9456 111.993 43.6098 112 32.4303C112 15.0723 87.1519 1 56.5 1Z" stroke="white" stroke-linecap="round" stroke-linejoin="round"/>
<path d="M24 28.0724V45M24 28.0724C26.1855 25.5898 31.9849 25 34 25V41.9276C31.9848 41.9276 26.1855 42.5174 24 45M24 28.0724C21.8145 25.5898 16.0152 25 14 25V41.9276C16.0151 41.9276 21.8145 42.5174 24 45" stroke="white" stroke-linecap="round" stroke-linejoin="round"/>
</svg>
